<?xml version="1.0" standalone="no"?><!DOCTYPE svg PUBLIC "-//W3C//DTD SVG 1.1//EN" "http://www.w3.org/Graphics/SVG/1.1/DTD/svg11.dtd"><svg width="100%" height="100%" viewBox="0 0 7112 7112" version="1.1" xmlns="http://www.w3.org/2000/svg" xmlns:xlink="http://www.w3.org/1999/xlink" xml:space="preserve" style="fill-rule:evenodd;clip-rule:evenodd;stroke-linejoin:round;stroke-miterlimit:1.41421;"><rect x="0" y="0" width="7111.11" height="7111.11" style="fill:#243665;"/><text x="2561.89px" y="3986.86px" style="font-family:'Trattatello';font-size:4030.89px;fill:#8bd8bd;">≥</text><g transform="matrix(33.3139,0,0,33.3139,-14644.1,-21439.5)"><text x="473.632px" y="781.018px" style="font-family:'Futura-Bold';font-size:23.793px;fill:#fff;">U<tspan x="492.309px 508.06px " y="781.018px 781.018px ">BI</tspan></text><text x="523.145px" y="781.018px" style="font-family:'Futura-Medium';font-size:23.793px;fill:#fff;">C<tspan x="539.533px 555.758px 572.622px 588.579px 605.443px " y="781.018px 781.018px 781.018px 781.018px 781.018px ">AUCUS</tspan></text></g><g transform="matrix(0.999999,-0.00104591,0.00104591,0.999999,34.7571,-23.1166)"><text x="1146.89px" y="5065.57px" style="font-family:'Futura-Medium';font-size:233.571px;fill:#8bd8bd;">M<tspan x="1383.13px 1567.82px 1734.26px 1878.01px 1961.77px 2086.13px 2269.11px 2412.85px 2496.61px 2640.36px 2814.55px 3034.94px 3245.4px 3465.79px 3702.03px 3853.87px 3937.63px 4189.04px 4409.43px 4561.73px 4728.17px 4811.92px 4942.56px 5162.94px 5315.24px 5399px 5583.23px 5731.08px " y="5065.57px 5065.57px 5065.57px 5065.57px 5065.57px 5065.57px 5065.57px 5065.57px 5065.57px 5065.57px 5065.57px 5065.57px 5065.57px 5065.57px 5065.57px 5065.57px 5065.57px 5065.57px 5065.57px 5065.57px 5065.57px 5065.57px 5065.57px 5065.57px 5065.57px 5065.57px 5065.57px 5065.57px ">AKE THE ECONOMY WORK FOR US.</tspan></text></g><path d="M3555.56,0c1962.36,0 3555.56,1593.19 3555.56,3555.56c0,1962.36 -1593.19,3555.56 -3555.56,3555.56c-1962.37,0 -3555.56,-1593.19 -3555.56,-3555.56c0,-1962.37 1593.19,-3555.56 3555.56,-3555.56ZM3555.56,455.988c1710.7,0 3099.57,1388.87 3099.57,3099.57c0,1710.7 -1388.87,3099.57 -3099.57,3099.57c-1710.7,0 -3099.57,-1388.87 -3099.57,-3099.57c0,-1710.7 1388.87,-3099.57 3099.57,-3099.57Z" style="fill:#fff;"/></svg>