<?xml version="1.0" encoding="UTF-8" standalone="no"?>
<svg
   xmlns:dc="http://purl.org/dc/elements/1.1/"
   xmlns:cc="http://creativecommons.org/ns#"
   xmlns:rdf="http://www.w3.org/1999/02/22-rdf-syntax-ns#"
   xmlns:svg="http://www.w3.org/2000/svg"
   xmlns="http://www.w3.org/2000/svg"
   width="100%"
   height="100%"
   viewBox="0 0 7112 7112"
   version="1.1"
   xml:space="preserve"
   style="fill-rule:evenodd;clip-rule:evenodd;stroke-linejoin:round;stroke-miterlimit:1.41421;"
   id="svg32">
  <metadata
   id="metadata38">
    <rdf:RDF>
      <cc:Work
   rdf:about="">
        <dc:format>image/svg+xml</dc:format>

        <dc:type
   rdf:resource="http://purl.org/dc/dcmitype/StillImage" />

      <dc:title></dc:title>
</cc:Work>

    </rdf:RDF>

  </metadata>

  <defs
   id="defs36" />

  
  <rect
   x="0"
   y="0"
   width="7111.11"
   height="7111.11"
   style="fill:#243665;"
   id="rect10" />

  <g
   id="g60"
   transform="translate(-18.231281,1511.6691)">
    <g
   id="g74"
   transform="translate(388.56544,748.56891)">
      <text
   x="804.44659"
   y="3305.2551"
   style="font-size:10066.7px;font-family:Trattatello;fill:#8bd8bd;stroke-width:2.49739"
   id="text12">≥</text>

      <g
   transform="matrix(27.867436,0,0,27.867436,-12054.243,-18091.682)"
   id="g22">
        <text
   x="473.63199"
   y="781.01801"
   style="font-size:23.793px;font-family:Futura-Bold;fill:#ffffff"
   id="text16"><tspan
     style="font-style:normal;font-variant:normal;font-weight:bold;font-stretch:normal;font-family:Futura;-inkscape-font-specification:'Futura Bold'"
     id="tspan42">U</tspan><tspan
     x="492.30899 508.06"
     y="781.01801 781.01801"
     id="tspan14"
     style="font-style:normal;font-variant:normal;font-weight:bold;font-stretch:normal;font-family:Futura;-inkscape-font-specification:'Futura Bold'">BI</tspan></text>

        <text
   x="523.14502"
   y="781.01801"
   style="font-size:23.793px;font-family:Futura-Medium;fill:#ffffff"
   id="text20"><tspan
     style="font-style:normal;font-variant:normal;font-weight:500;font-stretch:normal;font-family:Futura;-inkscape-font-specification:'Futura Medium'"
     id="tspan44">C</tspan><tspan
     x="539.53302 555.758 572.62201 588.57898 605.44299"
     y="781.01801 781.01801 781.01801 781.01801 781.01801"
     id="tspan18"
     style="font-style:normal;font-variant:normal;font-weight:500;font-stretch:normal;font-family:Futura;-inkscape-font-specification:'Futura Medium'">AUCUS</tspan></text>

      </g>

      <g
   transform="matrix(0.83651031,-8.7491542e-4,8.7491542e-4,0.83651031,224.78721,-176.63415)"
   id="g28">
        <text
   x="1146.89"
   y="5065.5698"
   style="font-size:233.571px;font-family:Futura-Medium;fill:#8bd8bd"
   id="text26"><tspan
     style="font-style:normal;font-variant:normal;font-weight:500;font-stretch:normal;font-family:Futura;-inkscape-font-specification:'Futura Medium'"
     id="tspan46">M</tspan><tspan
     x="1383.13 1567.8199 1734.26 1878.01 1961.77 2086.1299 2269.1101 2412.8501 2496.6101 2640.3601 2814.55 3034.9399 3245.3999 3465.79 3702.03 3853.8701 3937.6299 4189.04 4409.4302 4561.73 4728.1699 4811.9199 4942.5601 5162.9399 5315.2402 5399 5583.23 5731.0801"
     y="5065.5698 5065.5698 5065.5698 5065.5698 5065.5698 5065.5698 5065.5698 5065.5698 5065.5698 5065.5698 5065.5698 5065.5698 5065.5698 5065.5698 5065.5698 5065.5698 5065.5698 5065.5698 5065.5698 5065.5698 5065.5698 5065.5698 5065.5698 5065.5698 5065.5698 5065.5698 5065.5698 5065.5698"
     id="tspan24"
     style="font-style:normal;font-variant:normal;font-weight:500;font-stretch:normal;font-family:Futura;-inkscape-font-specification:'Futura Medium'">AKE THE ECONOMY WORK FOR US.</tspan></text>

      </g>

    </g>

  </g>

</svg>
