<?xml version="1.0" standalone="no"?><!DOCTYPE svg PUBLIC "-//W3C//DTD SVG 1.1//EN" "http://www.w3.org/Graphics/SVG/1.1/DTD/svg11.dtd"><svg width="100%" height="100%" viewBox="0 0 7112 4445" version="1.1" xmlns="http://www.w3.org/2000/svg" xmlns:xlink="http://www.w3.org/1999/xlink" xml:space="preserve" style="fill-rule:evenodd;clip-rule:evenodd;stroke-linejoin:round;stroke-miterlimit:1.41421;"><rect x="0" y="0" width="7111.11" height="4444.44" style="fill:#243665;"/><text x="592.157px" y="3073.87px" style="font-family:'Trattatello';font-size:3387.91px;fill:#8bd8bd;">≥</text><g transform="matrix(27.9999,0,0,27.9999,-10869.3,-19600.8)"><text x="473.632px" y="781.018px" style="font-family:'Futura-Bold';font-size:23.793px;fill:#fff;">U<tspan x="492.309px 508.06px " y="781.018px 781.018px ">BI</tspan></text><text x="523.145px" y="781.018px" style="font-family:'Futura-Medium';font-size:23.793px;fill:#fff;">C<tspan x="539.533px 555.758px 572.622px 588.579px 605.443px " y="781.018px 781.018px 781.018px 781.018px 781.018px ">AUCUS</tspan></text></g><g transform="matrix(0.999999,-0.00104591,0.00104591,0.999999,30.8867,-17.9775)"><text x="2352.87px" y="2658.04px" style="font-family:'Futura-Medium';font-size:196.314px;fill:#8bd8bd;">M<tspan x="2551.42px 2706.65px 2846.55px 2967.36px 3037.76px 3142.28px 3296.07px 3416.89px 3487.29px 3608.1px 3754.51px 3939.75px 4116.64px 4301.87px 4500.43px 4628.05px 4698.45px 4909.76px 5094.99px 5222.99px 5362.89px 5433.28px 5543.08px 5728.31px 5856.32px 5926.71px 6081.56px 6205.83px " y="2658.04px 2658.04px 2658.04px 2658.04px 2658.04px 2658.04px 2658.04px 2658.04px 2658.04px 2658.04px 2658.04px 2658.04px 2658.04px 2658.04px 2658.04px 2658.04px 2658.04px 2658.04px 2658.04px 2658.04px 2658.04px 2658.04px 2658.04px 2658.04px 2658.04px 2658.04px 2658.04px 2658.04px ">AKE THE ECONOMY WORK FOR US.</tspan></text></g></svg>